<svg xmlns="http://www.w3.org/2000/svg" width="80" height="80" viewBox="0 0 80 80">
  <defs>
    <style>
      .cls-1 {
        fill: none;
      }

      .cls-2 {
        fill: #d30c23;
      }

      .cls-3 {
        fill: #f3a324;
      }
    </style>
  </defs>
  <g id="数字旅游奖_logo竖版80x80" transform="translate(-11408 -4278)">
    <rect id="矩形_236" data-name="矩形 236" class="cls-1" width="80" height="80" transform="translate(11408 4278)"/>
    <g id="数字旅游奖" transform="translate(11412.217 4283.234)">
      <g id="组_191" data-name="组 191" transform="translate(13.97 0)">
        <rect id="矩形_190" data-name="矩形 190" class="cls-2" width="5.16" height="5.16" transform="translate(0 9.61)"/>
        <rect id="矩形_191" data-name="矩形 191" class="cls-3" width="7.372" height="7.372" transform="translate(5.16 2.238)"/>
        <rect id="矩形_192" data-name="矩形 192" class="cls-2" width="8.846" height="8.846" transform="translate(12.532 9.61)"/>
        <path id="路径_321" data-name="路径 321" class="cls-2" d="M-303.62,535.08a18.469,18.469,0,0,0-3.758.384v9.227a9.559,9.559,0,0,1,3.758-.765,9.583,9.583,0,0,1,9.583,9.584,9.583,9.583,0,0,1-9.583,9.583,9.56,9.56,0,0,1-3.758-.765v9.227a18.482,18.482,0,0,0,3.758.384,18.429,18.429,0,0,0,18.429-18.429A18.429,18.429,0,0,0-303.62,535.08Z" transform="translate(328.756 -535.08)"/>
      </g>
      <g id="组_194" data-name="组 194" transform="translate(0 42.748)">
        <g id="组_192" data-name="组 192" transform="translate(0.274 0)">
          <path id="路径_322" data-name="路径 322" d="M-342.334,585.226a8.251,8.251,0,0,1-1.8,1.391,4.749,4.749,0,0,0-.738-1.052,6.3,6.3,0,0,0,2.044-1.416h-1.79v-1.137h.944a6.768,6.768,0,0,0-.641-1.5l1.016-.424a4.829,4.829,0,0,1,.726,1.488l-.98.435h1.222v-2.129H-341v2.129h2.286v1.137h-1.766c.544.315,1.222.714,1.428.859l-.749,1c-.267-.254-.738-.653-1.2-1.016v1.318h-1.33Zm1.948,6.192a11.045,11.045,0,0,0-.92-.617,8.389,8.389,0,0,1-2.866,1.355,3.894,3.894,0,0,0-.654-1.077,7.75,7.75,0,0,0,2.371-.932c-.569-.3-1.173-.58-1.717-.81.217-.314.447-.69.689-1.1h-.92v-1.161h1.512c.11-.242.206-.471.291-.7l1.269.23c-.06.157-.133.314-.206.471H-340l.218-.037.774.29a6.533,6.533,0,0,1-1.391,2.637,9.866,9.866,0,0,1,.859.532Zm-1.705-3.181c-.122.23-.242.448-.363.642.326.157.665.327.979.5a4.544,4.544,0,0,0,.846-1.137Zm3.265-6.725c-.4.544-.774,1.089-1.089,1.463l-.919-.411a11.556,11.556,0,0,0,.8-1.524Zm4.451,2.927a14.349,14.349,0,0,1-1.161,4.293,5.789,5.789,0,0,0,2.2,2.214,4.453,4.453,0,0,0-.931,1.136,6.511,6.511,0,0,1-2.045-2.056A7.471,7.471,0,0,1-339,592.241a6.027,6.027,0,0,0-.762-1.173,5.9,5.9,0,0,0,2.734-2.31,15.424,15.424,0,0,1-.859-2.528,8.452,8.452,0,0,1-.642,1.077,6.936,6.936,0,0,0-1.028-.919,11.862,11.862,0,0,0,1.778-5.467l1.306.194c-.1.677-.217,1.354-.363,2h3.218v1.33Zm-2.66,0a17.3,17.3,0,0,0,.738,2.758,13.485,13.485,0,0,0,.592-2.758Z" transform="translate(344.874 -580.786)"/>
          <path id="路径_323" data-name="路径 323" d="M-317.839,588.7h-4.511v1.827c0,.774-.181,1.161-.774,1.379a6.8,6.8,0,0,1-2.347.242,5.226,5.226,0,0,0-.629-1.464c.749.024,1.657.024,1.9.024s.314-.049.314-.218V588.7h-4.487v-1.367h4.487V586.7a8.3,8.3,0,0,0,1.475-.991h-3.894v-1.343h5.346l.326-.072.956.75a12.172,12.172,0,0,1-2.673,2.093v.2h4.511ZM-326.9,584.8h-1.415v-2.77h4.524a6.283,6.283,0,0,0-.471-.8l1.44-.435a5.463,5.463,0,0,1,.737,1.234h4.161v2.77h-1.488v-1.415H-326.9Z" transform="translate(343.808 -580.781)"/>
          <path id="路径_324" data-name="路径 324" d="M-301.641,586.8a18.348,18.348,0,0,1-1.585,1.391,5.07,5.07,0,0,0,1.67,2.565,5.124,5.124,0,0,0-.968,1.185c-1.512-1.209-2.164-3.435-2.527-6.132-.254.061-.532.109-.8.169v4.077l1.488-.593a7.853,7.853,0,0,0,.157,1.295,15.193,15.193,0,0,0-2.855,1.33,3.969,3.969,0,0,0-.714-1,1.683,1.683,0,0,0,.544-1.258V585.37l-.048.048a7.621,7.621,0,0,0-1.15-.871,5.1,5.1,0,0,0,.424-.459h-2.262v1.173h2.189s0,.4-.012.569c-.1,3.834-.194,5.249-.508,5.672a1.038,1.038,0,0,1-.8.509,5.972,5.972,0,0,1-1.2.048,3.415,3.415,0,0,0-.339-1.234,8.229,8.229,0,0,0,.859.036.344.344,0,0,0,.339-.181c.169-.254.266-1.282.339-4.112h-.883a10.182,10.182,0,0,1-1.658,5.612,4.912,4.912,0,0,0-1.04-.8,9.843,9.843,0,0,0,1.44-5.648v-1.645h-1.136v-1.33h2.068a9.966,9.966,0,0,0-.532-1.512l1.246-.386a8.7,8.7,0,0,1,.616,1.608l-.81.291h2.152V584a8.281,8.281,0,0,0,1.367-3.133l1.38.266a8.089,8.089,0,0,1-.351,1.2h3.81v1.307h-4.367a8.026,8.026,0,0,1-.871,1.414,18.635,18.635,0,0,0,3.979-1.257l1.1,1a17.358,17.358,0,0,1-1.935.677c.06.484.145.967.241,1.427a9.584,9.584,0,0,0,.919-1Z" transform="translate(342.813 -580.785)"/>
          <path id="路径_325" data-name="路径 325" d="M-294.962,586.4a21.135,21.135,0,0,0-1.887-1.162l.811-1.028a20.5,20.5,0,0,1,1.934,1.028Zm.871,1.693c-.386,1.318-.871,2.745-1.318,3.93l-1.319-.7a38.956,38.956,0,0,0,1.476-3.943Zm7.173-.653h1.415v1.281h-1.415v1.984c0,.653-.1,1-.544,1.222a4.2,4.2,0,0,1-1.814.23,6.026,6.026,0,0,0-.375-1.319c.5.024,1.028.024,1.2.024s.206-.036.206-.182v-1.959h-1.536v-1.281h1.536v-1.052a5.179,5.179,0,0,0,.6-.569h-1.644v-.6a9,9,0,0,0-1.15-.654,5.434,5.434,0,0,0,.375-.592h-1.826c-.012.447-.024.9-.049,1.33h2.02s-.011.4-.011.569c-.134,3.761-.254,5.2-.593,5.636a1.015,1.015,0,0,1-.775.5,6.759,6.759,0,0,1-1.173.048,3.564,3.564,0,0,0-.351-1.294,5.975,5.975,0,0,0,.834.048.382.382,0,0,0,.351-.181c.169-.254.291-1.257.375-4.015h-.761a9.78,9.78,0,0,1-1.839,5.539,3.44,3.44,0,0,0-.979-.932c1.475-1.681,1.585-4.475,1.632-7.245h-.871V582.63l-.484.642a18.545,18.545,0,0,0-1.862-1.246L-295.6,581c.593.314,1.464.81,1.9,1.112l-.363.508h1.754a9.544,9.544,0,0,0-.761-1.343l1.33-.5a11.009,11.009,0,0,1,.9,1.452l-.9.386h1.923v.847a11.01,11.01,0,0,0,.665-2.577l1.379.23c-.072.4-.157.8-.253,1.185h2.491v1.355h-2.9c-.121.327-.254.642-.375.92h2.25l.254-.072.846.6a12.273,12.273,0,0,1-1.452,1.658Z" transform="translate(341.772 -580.78)"/>
          <path id="路径_326" data-name="路径 326" d="M-278.166,585.187c-.7.435-1.439.859-2.056,1.222l-.592-1.258c.677-.314,1.657-.822,2.648-1.342V580.88h1.391v6.157h-1.391Zm3.991,3.8c.811,1.149,2.371,1.693,4.669,1.838a4.87,4.87,0,0,0-.847,1.27c-2.334-.254-3.834-.967-4.826-2.37-.714,1.173-2.092,1.983-4.9,2.431a4.036,4.036,0,0,0-.689-1.209c2.661-.351,3.8-.993,4.342-1.96h-4.161v-1.258h4.56c.036-.23.073-.471.1-.714h1.5c-.024.242-.061.483-.1.714h4.705v1.258Zm-5.419-5.1a7.832,7.832,0,0,0-.992-1.826l1.064-.581a7.6,7.6,0,0,1,1.077,1.766Zm10-1.633c-.932,2.963-3.3,4.233-6.326,4.765a4.259,4.259,0,0,0-.749-1.2,11.569,11.569,0,0,0,2.6-.6,14.144,14.144,0,0,0-1.089-1.162l1.028-.616a12.719,12.719,0,0,1,1.222,1.209,4.657,4.657,0,0,0,1.512-1.56h-2.915a8.589,8.589,0,0,1-1.512,1.124,8.953,8.953,0,0,0-.859-1.052,6.641,6.641,0,0,0,2.5-2.31l1.367.447c-.121.194-.266.4-.411.593h2.527l.242-.036Z" transform="translate(340.736 -580.784)"/>
        </g>
        <g id="组_193" data-name="组 193" transform="translate(0 15.845)">
          <path id="路径_327" data-name="路径 327" d="M-344.834,599.9a1.924,1.924,0,0,1,1.849-2.183,1.551,1.551,0,0,1,1.147.513l-.265.312a1.148,1.148,0,0,0-.876-.4c-.824,0-1.366.668-1.366,1.751s.519,1.774,1.349,1.774a1.274,1.274,0,0,0,1-.484l.265.3a1.6,1.6,0,0,1-1.285.605C-344.062,602.086-344.834,601.268-344.834,599.9Z" transform="translate(345.145 -597.719)"/>
          <path id="路径_328" data-name="路径 328" d="M-340.049,597.8h.478v1.787h2.034V597.8h.472v4.218h-.472V600h-2.034v2.017h-.478Z" transform="translate(344.836 -597.724)"/>
          <path id="路径_329" data-name="路径 329" d="M-334.987,597.8h.478v4.218h-.478Z" transform="translate(344.509 -597.724)"/>
          <path id="路径_330" data-name="路径 330" d="M-332.6,597.8h.49l1.6,2.731.455.864h.028c-.028-.421-.063-.882-.063-1.314V597.8h.455v4.218h-.495l-1.585-2.731-.461-.864h-.029c.023.421.058.847.058,1.285v2.31h-.45Z" transform="translate(344.355 -597.724)"/>
          <path id="路径_331" data-name="路径 331" d="M-325.68,600.686h-1.573l-.432,1.331h-.478l1.441-4.218h.525l1.446,4.218h-.507Zm-.121-.374-.219-.686c-.162-.479-.295-.933-.439-1.429h-.022c-.138.5-.277.95-.432,1.429l-.219.686Z" transform="translate(344.068 -597.724)"/>
          <path id="路径_332" data-name="路径 332" d="M-321.26,597.8h1.037a1.833,1.833,0,0,1,1.97,2.092c0,1.325-.674,2.126-1.953,2.126h-1.054Zm1,3.826c1.026,0,1.522-.657,1.522-1.734s-.5-1.7-1.522-1.7h-.518v3.434Z" transform="translate(343.623 -597.724)"/>
          <path id="路径_333" data-name="路径 333" d="M-316.438,597.8h.478v4.218h-.478Z" transform="translate(343.311 -597.724)"/>
          <path id="路径_334" data-name="路径 334" d="M-314.32,599.9a1.943,1.943,0,0,1,1.913-2.183,1.628,1.628,0,0,1,1.2.513l-.266.312a1.2,1.2,0,0,0-.928-.4c-.875,0-1.434.668-1.434,1.751s.518,1.774,1.434,1.774a1.2,1.2,0,0,0,.8-.265v-1.152h-.917v-.4h1.36V601.6a1.781,1.781,0,0,1-1.291.484C-313.548,602.086-314.32,601.268-314.32,599.9Z" transform="translate(343.174 -597.719)"/>
          <path id="路径_335" data-name="路径 335" d="M-309.227,597.8h.478v4.218h-.478Z" transform="translate(342.845 -597.724)"/>
          <path id="路径_336" data-name="路径 336" d="M-305.99,598.2h-1.285v-.4h3.06v.4h-1.291v3.815h-.484Z" transform="translate(342.719 -597.724)"/>
          <path id="路径_337" data-name="路径 337" d="M-300.961,600.686h-1.572l-.432,1.331h-.478L-302,597.8h.524l1.446,4.218h-.507Zm-.121-.374-.219-.686c-.161-.479-.294-.933-.438-1.429h-.023c-.138.5-.277.95-.432,1.429l-.219.686Z" transform="translate(342.472 -597.724)"/>
          <path id="路径_338" data-name="路径 338" d="M-298.53,597.8h.478v3.815h1.862v.4h-2.34Z" transform="translate(342.154 -597.724)"/>
          <path id="路径_339" data-name="路径 339" d="M-291.771,598.2h-1.284v-.4H-290v.4h-1.29v3.815h-.485Z" transform="translate(341.801 -597.724)"/>
          <path id="路径_340" data-name="路径 340" d="M-286.028,602.017l-1.054-1.821h-.789v1.821h-.478V597.8h1.29c.859,0,1.458.305,1.458,1.169a1.136,1.136,0,0,1-.979,1.181l1.089,1.867Zm-1.844-2.212h.737c.68,0,1.055-.271,1.055-.836s-.375-.783-1.055-.783h-.737Z" transform="translate(341.497 -597.724)"/>
          <path id="路径_341" data-name="路径 341" d="M-282.012,600.686h-1.573l-.432,1.331h-.478l1.441-4.218h.524l1.446,4.218h-.507Zm-.122-.374-.219-.686c-.161-.479-.294-.933-.438-1.429h-.023c-.138.5-.276.95-.432,1.429l-.219.686Z" transform="translate(341.248 -597.724)"/>
          <path id="路径_342" data-name="路径 342" d="M-280.289,597.8h.5l.708,2.327c.151.5.248.9.415,1.395h.023c.161-.495.265-.893.42-1.395l.7-2.327h.484l-1.348,4.218h-.548Z" transform="translate(340.976 -597.724)"/>
          <path id="路径_343" data-name="路径 343" d="M-275.566,597.8h2.4v.4h-1.924v1.389h1.619v.4h-1.619v1.619h1.988v.4h-2.467Z" transform="translate(340.671 -597.724)"/>
          <path id="路径_344" data-name="路径 344" d="M-271.353,597.8h.478v3.815h1.861v.4h-2.339Z" transform="translate(340.399 -597.724)"/>
          <path id="路径_345" data-name="路径 345" d="M-342.683,607.357h-1.573l-.432,1.331h-.478l1.441-4.219h.525l1.446,4.219h-.507Zm-.121-.375-.219-.686c-.162-.478-.294-.934-.438-1.428h-.023c-.138.5-.277.95-.432,1.428l-.219.686Z" transform="translate(345.167 -598.155)"/>
          <path id="路径_346" data-name="路径 346" d="M-340.714,604.47h.489l.467,2.346q.13.673.259,1.365h.023c.1-.46.2-.916.306-1.365l.6-2.346h.443l.605,2.346c.1.443.208.9.312,1.365h.029c.08-.46.161-.916.248-1.365l.46-2.346h.461l-.888,4.219h-.564l-.674-2.628c-.069-.328-.138-.628-.208-.957h-.028c-.064.328-.144.629-.213.957l-.657,2.628h-.559Z" transform="translate(344.879 -598.155)"/>
          <path id="路径_347" data-name="路径 347" d="M-332.38,607.357h-1.573l-.432,1.331h-.478l1.441-4.219h.525l1.446,4.219h-.507Zm-.121-.375-.219-.686c-.162-.478-.295-.934-.439-1.428h-.022c-.139.5-.277.95-.432,1.428l-.219.686Z" transform="translate(344.501 -598.155)"/>
          <path id="路径_348" data-name="路径 348" d="M-327.627,608.689l-1.054-1.821h-.789v1.821h-.478V604.47h1.29c.859,0,1.458.306,1.458,1.17a1.137,1.137,0,0,1-.979,1.181l1.089,1.867Zm-1.844-2.213h.737c.68,0,1.055-.27,1.055-.835s-.375-.784-1.055-.784h-.737Z" transform="translate(344.184 -598.155)"/>
          <path id="路径_349" data-name="路径 349" d="M-325.472,604.47h1.037a1.834,1.834,0,0,1,1.97,2.093c0,1.325-.674,2.126-1.953,2.126h-1.054Zm1,3.827c1.026,0,1.522-.658,1.522-1.734s-.5-1.7-1.522-1.7h-.518V608.3Z" transform="translate(343.895 -598.155)"/>
          <path id="路径_350" data-name="路径 350" d="M-320.983,608.13l.288-.328a1.632,1.632,0,0,0,1.181.536c.576,0,.928-.294.928-.726,0-.456-.317-.6-.72-.778l-.611-.27a1.179,1.179,0,0,1-.859-1.072,1.175,1.175,0,0,1,1.3-1.1,1.679,1.679,0,0,1,1.227.518l-.254.3a1.356,1.356,0,0,0-.974-.4c-.49,0-.819.248-.819.646,0,.432.381.594.7.731l.611.26a1.187,1.187,0,0,1,.875,1.129,1.257,1.257,0,0,1-1.417,1.181A1.969,1.969,0,0,1-320.983,608.13Z" transform="translate(343.605 -598.15)"/>
        </g>
      </g>
    </g>
  </g>
</svg>
