<svg xmlns="http://www.w3.org/2000/svg" width="80" height="80" viewBox="0 0 80 80">
  <g id="DDC_logo" transform="translate(-271 -2575)">
    <rect id="矩形_280" data-name="矩形 280" width="80" height="80" transform="translate(271 2575)" fill="none"/>
    <g id="组_186" data-name="组 186" transform="translate(273 2594)">
      <g id="组_185" data-name="组 185" transform="translate(0 36.16)">
        <path id="路径_77" data-name="路径 77" d="M1.928,59.181H0v-.529H4.591v.529H2.655v5H1.928Z" transform="translate(0 -58.652)"/>
        <path id="路径_78" data-name="路径 78" d="M16.719,64.186,15.137,61.8H13.952v2.389h-.718V58.652h1.937c1.289,0,2.187.4,2.187,1.535a1.561,1.561,0,0,1-1.47,1.55l1.634,2.449Zm-2.767-2.9h1.107c1.02,0,1.582-.355,1.582-1.1s-.562-1.028-1.582-1.028H13.952Z" transform="translate(-5.075 -58.652)"/>
        <path id="路径_79" data-name="路径 79" d="M28.26,62.439H25.9l-.649,1.747h-.718L26.7,58.652h.787l2.17,5.534h-.761Zm-.181-.491-.329-.9c-.242-.628-.441-1.225-.657-1.875h-.035c-.208.658-.415,1.247-.649,1.875l-.329.9Z" transform="translate(-9.408 -58.652)"/>
        <path id="路径_80" data-name="路径 80" d="M36.632,58.652h.752l1.063,3.054c.225.658.372,1.179.623,1.829H39.1c.242-.65.4-1.171.631-1.829l1.046-3.054h.726l-2.023,5.534h-.821Z" transform="translate(-14.048 -58.652)"/>
        <path id="路径_81" data-name="路径 81" d="M49.909,58.652h3.605v.529H50.627V61h2.43v.529h-2.43v2.124h2.983v.529h-3.7Z" transform="translate(-19.139 -58.652)"/>
        <path id="路径_82" data-name="路径 82" d="M62.022,58.652h.718v5h2.793v.529h-3.51Z" transform="translate(-23.785 -58.652)"/>
        <path id="路径_83" data-name="路径 83" d="M73.461,58.652h1.556c1.946,0,2.957,1.006,2.957,2.744a2.6,2.6,0,0,1-2.932,2.79H73.461Zm1.5,5.02A2.05,2.05,0,0,0,77.24,61.4a2.017,2.017,0,0,0-2.283-2.23h-.778v4.505Z" transform="translate(-28.171 -58.652)"/>
        <path id="路径_84" data-name="路径 84" d="M89.174,62.439H86.813l-.649,1.747h-.718l2.161-5.534H88.4l2.17,5.534h-.761Zm-.182-.491-.329-.9c-.242-.628-.441-1.225-.657-1.875h-.035c-.208.658-.416,1.247-.649,1.875l-.329.9Z" transform="translate(-32.768 -58.652)"/>
        <path id="路径_85" data-name="路径 85" d="M99.159,58.652h.718v5.534h-.718Z" transform="translate(-38.026 -58.652)"/>
        <path id="路径_86" data-name="路径 86" d="M107.108,58.652h.718v5h2.793v.529h-3.51Z" transform="translate(-41.075 -58.652)"/>
        <path id="路径_87" data-name="路径 87" d="M117.856,62.016l-1.9-3.364h.761l.848,1.6c.216.409.406.794.64,1.21h.035c.225-.416.441-.8.64-1.21l.856-1.6h.735l-1.9,3.364v2.17h-.709Z" transform="translate(-44.466 -58.652)"/>
      </g>
      <path id="路径_88" data-name="路径 88" d="M23.981,8.421a13.581,13.581,0,0,0-2.843-4.994A9.91,9.91,0,0,0,16.651.589,20.763,20.763,0,0,0,10.986,0H2.644a.245.245,0,0,0-.166.417l4.633,4.8h1.6a26.289,26.289,0,0,1,4.935.295A5.646,5.646,0,0,1,16.427,6.96a7.108,7.108,0,0,1,1.706,2.986,19.033,19.033,0,0,1,.609,5.488,20.775,20.775,0,0,1-.609,5.645,6.591,6.591,0,0,1-1.574,2.976,5.483,5.483,0,0,1-2.426,1.282,15.809,15.809,0,0,1-3.635.295H6.01V6.2L.568.587A.332.332,0,0,0,0,.832v27.2c0,2.558,1.21,2.8,2.7,2.8H11.31a17.6,17.6,0,0,0,5.321-.652,10.491,10.491,0,0,0,4.223-2.461,13.681,13.681,0,0,0,3.189-5.446,20.946,20.946,0,0,0,.914-6.56A23.5,23.5,0,0,0,23.981,8.421Z" fill="#08923d"/>
      <path id="路径_89" data-name="路径 89" d="M64.4,15.6A19.552,19.552,0,0,1,65.72,7.951c.018-.044.043-.084.062-.128a13.354,13.354,0,0,0-2.614-4.4A9.91,9.91,0,0,0,58.68.589,20.763,20.763,0,0,0,53.015,0H44.638a.245.245,0,0,0-.166.417l4.633,4.8H50.74a26.282,26.282,0,0,1,4.934.295A5.644,5.644,0,0,1,58.456,6.96a7.1,7.1,0,0,1,1.706,2.986,19.033,19.033,0,0,1,.609,5.488,20.775,20.775,0,0,1-.609,5.645,6.591,6.591,0,0,1-1.573,2.976,5.489,5.489,0,0,1-2.427,1.282,15.809,15.809,0,0,1-3.635.295H48.039V6.24L42.6.605a.332.332,0,0,0-.569.244V28.027c0,2.456,1.21,2.8,2.7,2.8H53.34a17.594,17.594,0,0,0,5.32-.652,10.5,10.5,0,0,0,4.224-2.461,13.2,13.2,0,0,0,2.906-4.658A18.636,18.636,0,0,1,64.4,15.6Z" transform="translate(-16.118)" fill="#08923d"/>
      <path id="路径_90" data-name="路径 90" d="M113.71,32.539l4.349,4.349a15.569,15.569,0,0,0,1.547-4.354h-5.9Z" transform="translate(-43.606 -12.477)" fill="#1d51a3"/>
      <path id="路径_91" data-name="路径 91" d="M100.475,21.6a7.478,7.478,0,0,1-.935,1.489,7.031,7.031,0,0,1-10.923-.021q-2.157-2.612-2.156-7.676,0-5.144,2.1-7.7A7.268,7.268,0,0,1,99.6,7.666a7.72,7.72,0,0,1,1.214,2.143h5.911a13.708,13.708,0,0,0-2.962-5.722A12.391,12.391,0,0,0,94.036,0a14.066,14.066,0,0,0-5.925,1.179,10.727,10.727,0,0,0-3.554,2.684A14.139,14.139,0,0,0,82,7.951,20.371,20.371,0,0,0,80.742,15.6q0,7.117,3.619,11.174a12.414,12.414,0,0,0,9.751,4.056A12.032,12.032,0,0,0,104.6,25.72Z" transform="translate(-30.964)" fill="#02aaa1"/>
    </g>
  </g>
</svg>
