<svg xmlns="http://www.w3.org/2000/svg" width="80" height="80" viewBox="0 0 80 80">
  <g id="HMC_logo" transform="translate(-183 -2575)">
    <rect id="矩形_277" data-name="矩形 277" width="80" height="80" transform="translate(183 2575)" fill="none"/>
    <g id="组_184" data-name="组 184" transform="translate(185 2594)">
      <g id="组_182" data-name="组 182" transform="translate(0 37.197)">
        <path id="路径_62" data-name="路径 62" d="M1.928,59.084H0v-.529H4.591v.529H2.655v5H1.928Z" transform="translate(0 -58.555)"/>
        <path id="路径_63" data-name="路径 63" d="M16.328,64.089,14.747,61.7H13.562v2.389h-.718V58.555h1.937c1.288,0,2.188.4,2.188,1.535a1.562,1.562,0,0,1-1.47,1.55l1.634,2.449Zm-2.767-2.9h1.107c1.02,0,1.582-.355,1.582-1.1,0-.756-.562-1.028-1.582-1.028H13.562Z" transform="translate(-4.685 -58.555)"/>
        <path id="路径_64" data-name="路径 64" d="M27.537,62.342H25.176l-.649,1.746H23.81l2.162-5.534h.786l2.171,5.534h-.761Zm-.182-.491-.329-.9c-.242-.627-.441-1.225-.657-1.875h-.034c-.208.657-.415,1.248-.649,1.875l-.329.9Z" transform="translate(-8.685 -58.555)"/>
        <path id="路径_65" data-name="路径 65" d="M35.552,58.555H36.3l1.063,3.054c.225.657.372,1.179.623,1.83h.034c.243-.65.4-1.172.631-1.83L39.7,58.555h.726L38.4,64.089h-.821Z" transform="translate(-12.968 -58.555)"/>
        <path id="路径_66" data-name="路径 66" d="M48.437,58.555h3.606v.529H49.155v1.822h2.429v.529H49.155v2.124h2.982v.529h-3.7Z" transform="translate(-17.667 -58.555)"/>
        <path id="路径_67" data-name="路径 67" d="M60.192,58.555h.718v5H63.7v.529H60.192Z" transform="translate(-21.955 -58.555)"/>
        <path id="路径_68" data-name="路径 68" d="M71.294,58.555H72.85c1.946,0,2.957,1.006,2.957,2.744a2.6,2.6,0,0,1-2.931,2.789H71.294Zm1.5,5.02A2.049,2.049,0,0,0,75.072,61.3a2.017,2.017,0,0,0-2.282-2.23h-.778v4.506Z" transform="translate(-26.005 -58.555)"/>
        <path id="路径_69" data-name="路径 69" d="M86.653,62.342h-2.36l-.649,1.746h-.718l2.162-5.534h.786l2.171,5.534h-.761Zm-.182-.491-.328-.9c-.242-.627-.441-1.225-.657-1.875h-.034c-.208.657-.415,1.248-.649,1.875l-.328.9Z" transform="translate(-30.248 -58.555)"/>
        <path id="路径_70" data-name="路径 70" d="M96.234,58.555h.718v5.534h-.718Z" transform="translate(-35.101 -58.555)"/>
        <path id="路径_71" data-name="路径 71" d="M103.949,58.555h.717v5h2.793v.529h-3.51Z" transform="translate(-37.915 -58.555)"/>
        <path id="路径_72" data-name="路径 72" d="M114.436,61.919l-1.9-3.364h.761l.847,1.6c.216.408.407.793.64,1.21h.035c.225-.416.441-.8.64-1.21l.856-1.6h.735l-1.9,3.364v2.169h-.709Z" transform="translate(-41.046 -58.555)"/>
      </g>
      <path id="路径_73" data-name="路径 73" d="M110.072,32.543l4.481,4.481a16.037,16.037,0,0,0,1.6-4.489h-6.074Z" transform="translate(-40.149 -11.867)" fill="#1d51a3"/>
      <path id="路径_74" data-name="路径 74" d="M97.437,22.26a7.687,7.687,0,0,1-.962,1.531,7.245,7.245,0,0,1-11.255-.021Q83,21.077,83,15.86q0-5.3,2.164-7.93A7.489,7.489,0,0,1,96.533,7.9a7.949,7.949,0,0,1,1.251,2.209h6.091a14.117,14.117,0,0,0-3.052-5.9A12.766,12.766,0,0,0,90.8,0,14.493,14.493,0,0,0,84.7,1.215a11.061,11.061,0,0,0-3.662,2.766A14.568,14.568,0,0,0,78.4,8.192a20.99,20.99,0,0,0-1.295,7.878q0,7.333,3.729,11.513a12.791,12.791,0,0,0,10.047,4.179,12.4,12.4,0,0,0,10.8-5.257Z" transform="translate(-28.124)" fill="#c12b88"/>
      <g id="组_183" data-name="组 183">
        <path id="路径_75" data-name="路径 75" d="M0,21.518V37.859a1.752,1.752,0,0,0,1.753,1.753H6.413V27.931Z" transform="translate(0 -7.849)" fill="#7b309e"/>
        <path id="路径_76" data-name="路径 76" d="M50.5,5.41V0H40.552l-5.7,21.666L29.091,0H18.979V12.5H6.413V0H0V11.476l6.413,6.413v-.015H18.979V31.762h6.472v-25l6.283,25h6.175l6.3-25v25H50.5v-5.33q-3.055-3.992-3.057-10.363a19.528,19.528,0,0,1,1.4-7.878A14.376,14.376,0,0,1,50.5,5.41Z" fill="#7b309e"/>
      </g>
    </g>
  </g>
</svg>
