<svg xmlns="http://www.w3.org/2000/svg" width="283.061" height="68.121" viewBox="0 0 283.061 68.121">
  <g id="TDC_logo" transform="translate(832.923 280.009)">
    <g id="组_195" data-name="组 195" transform="translate(-733.322 -265.005)">
      <path id="路径_235" data-name="路径 235" d="M-711.235-243.992l.463,2.525c-3.125,1.082-6.437,2.194-9.068,3.036l-.682-2.615c1.053-.3,2.322-.661,3.683-1.112v-7.574h-3.033v-2.585h3.033V-258.3H-720.3v-2.555h9.378v2.555h-3.249v5.981h2.569v2.585h-2.569v6.7Zm16.527,0a55.028,55.028,0,0,0-5.7-7.695v16.412h-2.847V-249.7a30.9,30.9,0,0,1-5.231,6.132,22,22,0,0,0-2.259-2.224c3.683-2.886,6.747-7.485,8.7-12.534h-7.489v-2.645h17.146v2.645h-6.5c-.464,1.2-.96,2.4-1.517,3.577v2.435l1.826-1.232a67.92,67.92,0,0,1,6.283,7.814Z" transform="translate(720.521 262.838)" fill="#fff"/>
      <path id="路径_236" data-name="路径 236" d="M-657.4-252.666a76.257,76.257,0,0,1-5.23,6.192,16.892,16.892,0,0,0,6.035,6.733,6.057,6.057,0,0,0-1.764,2.164,19.524,19.524,0,0,1-6.562-7.815v6.7c0,1.5-.371,2.284-1.3,2.735-.96.481-2.414.572-4.8.572a11.661,11.661,0,0,0-.99-2.675c1.672.059,3.157.029,3.62.029.5-.029.682-.18.682-.661v-6.132c-2.384,2.315-4.829,4.569-6.871,6.373l-1.764-2.435.433-.331c-3.187,1.022-6.531,2.043-9.13,2.825l-.619-2.675c1.083-.27,2.445-.661,3.9-1.082v-7.815h-3.312v-2.585h3.312v-5.981h-3.528v-2.586h9.564v2.586H-679.1v5.981h2.909v2.585H-679.1v7.033l3.527-1.052.371,2.224c2.043-1.593,4.86-3.907,7.49-6.1V-255.4h-7.335v-2.585h7.335v-4.99h2.785v4.99h7.831v2.585h-7.831v1.233a34.26,34.26,0,0,0,1.3,5.35,43.074,43.074,0,0,0,3.714-5.11Zm-15.072-1.082a22.844,22.844,0,0,1,3.219,5.35l-2.384,1.112a22.019,22.019,0,0,0-3.064-5.5Zm12.38-4.267a19.8,19.8,0,0,0-3.591-3.277l1.61-1.443a20.489,20.489,0,0,1,3.714,3.066Z" transform="translate(716.55 263.066)" fill="#fff"/>
      <path id="路径_237" data-name="路径 237" d="M-638.858-252.136s0,.782-.031,1.142c-.247,9.738-.5,13.075-1.238,14.1a2.426,2.426,0,0,1-1.887,1.082,22.879,22.879,0,0,1-3,.06,5.444,5.444,0,0,0-.681-2.434c1.022.089,1.949.121,2.414.121a.9.9,0,0,0,.836-.422c.5-.631.743-3.426.929-11.121h-3c-.123,4.569-.9,9.708-4.24,14.157a12.536,12.536,0,0,0-2.1-1.593c3.4-4.629,3.807-10.01,3.807-14.218v-4.358h-3.125v-2.585h5.632a24.05,24.05,0,0,0-1.578-4.058l2.506-.811a22.384,22.384,0,0,1,1.7,4.027l-2.445.842h6.158v2.585h-6.283v3.487Zm4.891-4.508a18.437,18.437,0,0,1-3,4.418,14.831,14.831,0,0,0-2.29-1.714,19.084,19.084,0,0,0,4.735-9.077l2.785.51c-.309,1.112-.68,2.254-1.052,3.306h10.182v2.556Zm11.482,7.574a45.837,45.837,0,0,1-4.457,3.7c1.053,3.126,2.6,5.651,4.8,7.154a9.39,9.39,0,0,0-1.98,2.284c-3.993-2.976-5.85-8.747-6.871-15.66-.836.181-1.672.361-2.476.541v11.271l4.239-1.714a15.058,15.058,0,0,0,.372,2.525c-5.571,2.435-6.531,2.825-7.088,3.336a7.224,7.224,0,0,0-1.454-1.984,3.538,3.538,0,0,0,1.176-2.795v-12.353a52.053,52.053,0,0,0,10.864-3.247l2.259,1.954a41.613,41.613,0,0,1-5.416,1.833,38.416,38.416,0,0,0,.836,4.418,32.42,32.42,0,0,0,3.125-3.006Z" transform="translate(712.588 263.077)" fill="#fff"/>
      <path id="路径_238" data-name="路径 238" d="M-605.723-244.387a12.026,12.026,0,0,0,1.084,2.345c-5.447,4.329-6.314,5.08-6.809,5.771a8.816,8.816,0,0,0-1.455-2.345,3.375,3.375,0,0,0,1.517-2.735V-251h-4.024v-2.675h6.809v11.512Zm-3.59-11.632a32.872,32.872,0,0,0-4.209-4.719l1.949-1.593a34.163,34.163,0,0,1,4.364,4.478Zm18.662-5.38c-.185,11.6-.216,22.573,1.578,23.024.217.059.464-2.1.557-4.389a13.224,13.224,0,0,0,1.64,2.1c-.4,4.78-1.64,5.831-3.342,5.14-3.342-1.082-3.342-11.181-3.342-23.265h-5.354v7.966h4.363v2.614h-4.363v12.415h-2.724V-248.2h-4.271v-2.614h4.271v-7.966h-4.086V-261.4Z" transform="translate(708.55 262.992)" fill="#fff"/>
      <path id="路径_239" data-name="路径 239" d="M-554.107-259.97A16.858,16.858,0,0,1-558.5-253.6a21.749,21.749,0,0,0,6.623,2.4,10.811,10.811,0,0,0-1.733,2.345,20.256,20.256,0,0,1-7-3.126,25.317,25.317,0,0,1-7.861,3.517,11.3,11.3,0,0,0-1.362-2.134v12.023h-2.135v-1.172l-7.675.631v-18.966h2.167v16.53l1.609-.12V-262.7h2.291v20.889l1.609-.12v-16.171h2.135v7.484a23.537,23.537,0,0,0,7.181-2.945,16.18,16.18,0,0,1-2.29-2.616,19.048,19.048,0,0,1-2.817,2.435,18.073,18.073,0,0,0-1.794-2.1,16.568,16.568,0,0,0,6.128-7.123l2.631.662a18.351,18.351,0,0,1-.867,1.743h5.262l.526-.09Zm-5.261,19.116h6.685v2.224h-6.685v3.216h-2.817v-3.216h-6.561v-2.224h6.561v-1.8h-5.138v-2.074h5.138v-1.653h-5.354v-2.074h5.354V-250.2h2.817v1.744h5.447v2.074h-5.447v1.653h5.354v2.074h-5.354Zm-3.962-17.193a12.667,12.667,0,0,0,2.723,2.946,15.069,15.069,0,0,0,2.817-3.277h-5.293Z" transform="translate(704.477 263.066)" fill="#fff"/>
      <path id="路径_240" data-name="路径 240" d="M-528.783-261.9c-.279.421-.619.841-.96,1.262a37.964,37.964,0,0,0,12.6,7.214,12.027,12.027,0,0,0-2.012,2.435,36.441,36.441,0,0,1-5.014-2.435v2.1h-14.485v-1.894a50.8,50.8,0,0,1-4.952,2.555,11.224,11.224,0,0,0-2.042-2.465c5.912-2.314,11.358-6.011,14.206-9.949Zm-15.258,13.736h25.347v2.735H-531.94a45.568,45.568,0,0,1-5.633,5.981l12.6-.842a39.523,39.523,0,0,0-3.188-3.186l2.445-1.233a38.818,38.818,0,0,1,6.964,7.725l-2.6,1.533a18.694,18.694,0,0,0-1.609-2.375c-15.784,1.2-17.642,1.293-18.972,1.8a24.134,24.134,0,0,0-.991-2.855,5.677,5.677,0,0,0,2.352-1.533,41.808,41.808,0,0,0,4.7-5.02h-8.17Zm19.1-5.74a40.766,40.766,0,0,1-6.469-4.929,33.937,33.937,0,0,1-6.128,4.929Z" transform="translate(700.606 263.077)" fill="#fff"/>
    </g>
    <g id="组_197" data-name="组 197" transform="translate(-733.997 -230.85)">
      <g id="组_196" data-name="组 196" transform="translate(0 0)">
        <path id="路径_241" data-name="路径 241" d="M-718.225-223.134h-3.058v-1.2h7.772v1.2h-3.072v7.914h-1.642Z" transform="translate(721.283 224.51)" fill="#fff"/>
        <path id="路径_242" data-name="路径 242" d="M-704.794-215.221l-2.364-3.679h-1.685v3.679h-1.642v-9.115h3.411c2.151,0,3.765.668,3.765,2.638a2.606,2.606,0,0,1-2.18,2.613l2.549,3.864Zm-4.049-4.83h1.571c1.515,0,2.336-.545,2.336-1.647s-.82-1.487-2.336-1.487h-1.571Z" transform="translate(720.053 224.51)" fill="#fff"/>
        <path id="路径_243" data-name="路径 243" d="M-695.483-217.821h-3.624l-.891,2.6h-1.67l3.454-9.115h1.9l3.454,9.115H-694.6Zm-.4-1.127-.411-1.226c-.354-.991-.665-2.006-.991-3.034h-.057c-.3,1.039-.623,2.043-.962,3.034l-.425,1.226Z" transform="translate(719.049 224.51)" fill="#fff"/>
        <path id="路径_244" data-name="路径 244" d="M-692.039-224.336h1.741l1.543,4.719c.355,1.04.581,1.932.949,2.984h.071c.354-1.053.609-1.944.948-2.984l1.544-4.719h1.67l-3.256,9.115h-1.939Z" transform="translate(717.953 224.51)" fill="#fff"/>
        <path id="路径_245" data-name="路径 245" d="M-680.97-224.336h6.158v1.2h-4.516v2.539h3.823v1.213h-3.823v2.948h4.672v1.214h-6.314Z" transform="translate(716.692 224.51)" fill="#fff"/>
        <path id="路径_246" data-name="路径 246" d="M-671.387-224.336h1.642v7.9h4.4v1.214h-6.045Z" transform="translate(715.6 224.51)" fill="#fff"/>
        <path id="路径_247" data-name="路径 247" d="M-662.491-224.336h2.7c3.2,0,5.025,1.548,5.025,4.52s-1.826,4.6-4.94,4.6h-2.789Zm2.59,7.939c2.237,0,3.44-1.152,3.44-3.419s-1.2-3.356-3.44-3.356h-.948v6.774Z" transform="translate(714.587 224.51)" fill="#fff"/>
        <path id="路径_248" data-name="路径 248" d="M-646.866-217.821h-3.624l-.892,2.6h-1.67l3.454-9.115h1.9l3.454,9.115h-1.741Zm-.4-1.127-.41-1.226c-.354-.991-.665-2.006-.991-3.034h-.057c-.3,1.039-.623,2.043-.962,3.034l-.425,1.226Z" transform="translate(713.512 224.51)" fill="#fff"/>
        <path id="路径_249" data-name="路径 249" d="M-641.568-224.336h1.642v9.115h-1.642Z" transform="translate(712.205 224.51)" fill="#fff"/>
        <path id="路径_250" data-name="路径 250" d="M-636.633-224.336h1.642v7.9h4.4v1.214h-6.045Z" transform="translate(711.643 224.51)" fill="#fff"/>
        <path id="路径_251" data-name="路径 251" d="M-627.627-218.676l-3.129-5.66H-629l1.2,2.415c.326.681.623,1.313.977,2.006h.057c.339-.693.679-1.325.991-2.006l1.218-2.415h1.713l-3.143,5.66v3.456h-1.642Z" transform="translate(710.973 224.51)" fill="#fff"/>
        <path id="路径_252" data-name="路径 252" d="M-617.372-219.776a4.5,4.5,0,0,1,4.7-4.756,4.279,4.279,0,0,1,2.958,1.152l-.891.916a2.953,2.953,0,0,0-2.039-.818c-1.8,0-3.044,1.313-3.044,3.456,0,2.167,1.161,3.493,3,3.493a3.223,3.223,0,0,0,2.307-.967l.877.9a4.376,4.376,0,0,1-3.241,1.312A4.4,4.4,0,0,1-617.372-219.776Z" transform="translate(709.449 224.532)" fill="#fff"/>
        <path id="路径_253" data-name="路径 253" d="M-607.613-219.838a4.32,4.32,0,0,1,4.531-4.694,4.331,4.331,0,0,1,4.544,4.694c0,2.936-1.869,4.756-4.544,4.756S-607.613-216.9-607.613-219.838Zm7.39,0c0-2.143-1.133-3.443-2.859-3.443s-2.846,1.3-2.846,3.443,1.119,3.505,2.846,3.505S-600.223-217.7-600.223-219.838Z" transform="translate(708.338 224.532)" fill="#fff"/>
        <path id="路径_254" data-name="路径 254" d="M-594.931-224.336h1.684l3.454,5.35,1.09,1.932h.071c-.085-.941-.213-2.043-.213-3.034v-4.248h1.558v9.115h-1.685l-3.454-5.375-1.089-1.908h-.072c.085.941.213,1.994.213,2.985v4.3h-1.557Z" transform="translate(706.893 224.51)" fill="#fff"/>
        <path id="路径_255" data-name="路径 255" d="M-583.208-224.336h6.172v1.2h-4.53v2.786h3.851v1.2h-3.851v3.926h-1.642Z" transform="translate(705.558 224.51)" fill="#fff"/>
        <path id="路径_256" data-name="路径 256" d="M-574.168-224.336h6.157v1.2h-4.516v2.539h3.823v1.213h-3.823v2.948h4.672v1.214h-6.314Z" transform="translate(704.529 224.51)" fill="#fff"/>
        <path id="路径_257" data-name="路径 257" d="M-558.894-215.221l-2.364-3.679h-1.684v3.679h-1.642v-9.115h3.412c2.151,0,3.766.668,3.766,2.638a2.607,2.607,0,0,1-2.181,2.613l2.548,3.864Zm-4.049-4.83h1.572c1.514,0,2.335-.545,2.335-1.647s-.821-1.487-2.335-1.487h-1.572Z" transform="translate(703.437 224.51)" fill="#fff"/>
        <path id="路径_258" data-name="路径 258" d="M-554.124-224.336h6.159v1.2h-4.516v2.539h3.822v1.213h-3.822v2.948h4.671v1.214h-6.314Z" transform="translate(702.246 224.51)" fill="#fff"/>
        <path id="路径_259" data-name="路径 259" d="M-544.541-224.336h1.685l3.454,5.35,1.09,1.932h.071c-.085-.941-.212-2.043-.212-3.034v-4.248h1.557v9.115h-1.685l-3.454-5.375-1.09-1.908h-.071c.084.941.212,1.994.212,2.985v4.3h-1.557Z" transform="translate(701.155 224.51)" fill="#fff"/>
        <path id="路径_260" data-name="路径 260" d="M-533.457-219.776a4.5,4.5,0,0,1,4.7-4.756,4.28,4.28,0,0,1,2.958,1.152l-.891.916a2.957,2.957,0,0,0-2.039-.818c-1.8,0-3.044,1.313-3.044,3.456,0,2.167,1.161,3.493,3,3.493a3.221,3.221,0,0,0,2.307-.967l.878.9a4.376,4.376,0,0,1-3.242,1.312A4.4,4.4,0,0,1-533.457-219.776Z" transform="translate(699.892 224.532)" fill="#fff"/>
        <path id="路径_261" data-name="路径 261" d="M-522.5-224.336h6.158v1.2h-4.516v2.539h3.823v1.213h-3.823v2.948h4.672v1.214H-522.5Z" transform="translate(698.644 224.51)" fill="#fff"/>
      </g>
    </g>
    <g id="组_199" data-name="组 199" transform="translate(-832.923 -280.009)">
      <g id="组_198" data-name="组 198" transform="translate(0 0)">
        <path id="路径_262" data-name="路径 262" d="M-832.923-277.738v7.844a2.271,2.271,0,0,0,2.271,2.27h22.5v53.463a2.271,2.271,0,0,0,2.27,2.271h7.844a2.271,2.271,0,0,0,2.271-2.271v-53.463l-12.385-12.385h-22.5A2.271,2.271,0,0,0-832.923-277.738Z" transform="translate(832.923 280.009)" fill="#fff"/>
        <path id="路径_263" data-name="路径 263" d="M-756.063-279.344a2.27,2.27,0,0,0-1.605-.665h-42.408l12.386,12.385h41.534a.751.751,0,0,0,.532-1.282Z" transform="translate(829.182 280.009)" fill="#fff"/>
      </g>
      <path id="路径_264" data-name="路径 264" d="M-751.157-248.573v0Z" transform="translate(823.611 276.429)" fill="#9fa0a0"/>
      <path id="路径_265" data-name="路径 265" d="M-742.833-260.08a1.756,1.756,0,0,0-1.756-1.758h-10.626v11.783A27.9,27.9,0,0,1-783.083-222.2a27.953,27.953,0,0,1-3.716-.255v10.337a2.266,2.266,0,0,0,2.159,2.271q.775.032,1.558.033a40.292,40.292,0,0,0,40.237-39.634Z" transform="translate(827.67 277.94)" fill="#b90f19"/>
    </g>
  </g>
</svg>
